<?xml version="1.0" encoding="utf-8"?>
<!-- Generator: Adobe Illustrator 27.8.1, SVG Export Plug-In . SVG Version: 6.00 Build 0)  -->
<svg version="1.1" id="Layer_1" xmlns="http://www.w3.org/2000/svg" xmlns:xlink="http://www.w3.org/1999/xlink" x="0px" y="0px"
	 viewBox="0 0 595.3 841.9" style="enable-background:new 0 0 595.3 841.9;" xml:space="preserve">
<style type="text/css">
	.st0{fill:#2E3192;}
	.st1{fill:#FFF200;}
	.st2{fill:#E9D918;}
	.st3{stroke:#000000;stroke-miterlimit:10;}
	.st4{fill:#ED1C24;}
	.st5{fill:#FFFFFF;}
	.st6{fill:#F26522;}
	.st7{fill:#EC008C;}
	.st8{fill:#EE2A7B;}
	.st9{fill:#27AAE1;}
	.st10{fill:#F1F2F2;}
</style>
<rect x="32" y="64" class="st0" width="32" height="32"/>
<rect y="64" width="32" height="32"/>
<rect x="64" y="0" width="32" height="32"/>
<circle class="st1" cx="80" cy="16.1" r="4"/>
<rect x="32" y="0" width="32" height="32"/>
<circle class="st2" cx="48" cy="16.1" r="16"/>
<rect x="0" y="0" width="32" height="32"/>
<circle class="st2" cx="16" cy="16.1" r="16"/>
<polygon points="12.9,16.1 32,24.8 32,7.3 "/>
<rect x="32" y="32" width="32" height="32"/>
<circle class="st2" cx="48" cy="48" r="16"/>
<polygon points="51.2,48.1 32,39.4 32,56.8 "/>
<rect x="0" y="32" width="32" height="32"/>
<circle class="st2" cx="16" cy="48" r="16"/>
<polygon points="16,52 24.7,32 7.3,32 "/>
<rect x="64" y="32" width="32" height="32"/>
<circle class="st2" cx="80" cy="48" r="15"/>
<polygon points="76.9,48 96,56.7 96,39.2 "/>
<path d="M96,0v32h32V0C128,0,96,0,96,0z M108.2,7.8c-0.1,0-0.1,0-0.1,0c0,0-0.1,0-0.1,0c-1.3,0-1.3-2,0-2c0.1,0,0.1,0,0.1,0
	c0,0,0.1,0,0.1,0C109.5,5.8,109.5,7.8,108.2,7.8z M117.4,7.8c-1.3,0-1.3-2,0-2C118.7,5.8,118.7,7.8,117.4,7.8z"/>
<rect x="105.4" y="20.9" class="st3" width="0.8" height="9.9"/>
<rect x="109.7" y="21.6" class="st3" width="0.8" height="9.9"/>
<path class="st4" d="M128,24.9c-0.6-5.4-1.6-10.7-3.1-15.9c-0.3-1-0.6-2.1-1.2-3c-0.7-1.1-1.7-1.9-2.8-2.5c-2.8-1.8-6-2.9-9.2-3.3
	c-2.7-0.3-5.7,0-7.4,2.4c-0.7,0.9-1.1,2.1-1.5,3.2c-1.3,3.7-2.6,7.3-3.8,11c-0.7,2.1-1.4,4.1-2.2,6.2c-0.3,1-0.7,2.1-0.7,3.2
	c0,1.3,1.1,4.7,1.6,5.9c2.8-0.6,5.2-3.2,5.9-6.3c0.6,1.8,1.4,3.5,2.5,5c0.4,0.6,1,1.2,1.7,1.2c1,0,1.5-1.3,1.8-2.4
	c0.5-1.9,0.9-3.7,1.4-5.5c0.9,2,1.7,4.2,2.3,6.3c2.8-0.9,4.9-3.7,5.4-6.9c0.9,2.5,2.6,4.8,4.8,6.1c0.8,0.5,1.8,0.9,2.7,0.6
	C128,29.6,128.2,26.9,128,24.9z M108.3,7.9c-0.1,0-0.1,0-0.1,0c0,0-0.1,0-0.1,0c-1.3,0-1.3-2,0-2c0.1,0,0.1,0,0.1,0c0,0,0.1,0,0.1,0
	C109.6,5.9,109.6,7.9,108.3,7.9z M117.5,7.9c-1.3,0-1.3-2,0-2C118.8,5.9,118.8,7.9,117.5,7.9z"/>
<g>
	<g>
		<path class="st5" d="M108.2,9.7c3.2,0,3.2-5,0-5C105,4.7,105,9.7,108.2,9.7L108.2,9.7z"/>
	</g>
</g>
<g>
	<g>
		<path class="st5" d="M117.3,9.2c3.2,0,3.2-5,0-5C114.1,4.2,114.1,9.2,117.3,9.2L117.3,9.2z"/>
	</g>
</g>
<path d="M108,4.8c-1.2,0-1.2,0.8,0,0.8C109.2,5.6,109.2,4.8,108,4.8z"/>
<path d="M117.3,4.2c-1.2,0-1.2,0.8,0,0.8S118.5,4.2,117.3,4.2z"/>
<path d="M128,32v32h32V32C160,32,128,32,128,32z M140.2,39.9c-0.1,0-0.1,0-0.1,0c0,0-0.1,0-0.1,0c-1.3,0-1.3-2,0-2
	c0.1,0,0.1,0,0.1,0c0,0,0.1,0,0.1,0C141.5,37.9,141.5,39.9,140.2,39.9z M149.4,39.9c-1.3,0-1.3-2,0-2
	C150.7,37.9,150.7,39.9,149.4,39.9z"/>
<rect x="137.6" y="53" class="st3" width="0.8" height="9.9"/>
<rect x="141.9" y="53.7" class="st3" width="0.8" height="9.9"/>
<path class="st4" d="M160,56.9c-0.6-5.4-1.6-10.7-3.1-15.9c-0.3-1-0.6-2.1-1.2-3c-0.7-1.1-1.7-1.9-2.8-2.5c-2.8-1.8-6-2.9-9.2-3.3
	c-2.7-0.3-5.7,0-7.4,2.4c-0.7,0.9-1.1,2.1-1.5,3.2c-1.3,3.7-2.6,7.3-3.8,11c-0.7,2.1-1.4,4.2-2.2,6.2c-0.4,1-0.7,2.1-0.7,3.2
	c0,1.3,1.1,4.7,1.6,5.9c2.8-0.6,5.2-3.2,5.9-6.3c0.6,1.8,1.4,3.5,2.5,5c0.4,0.6,1,1.2,1.7,1.2c1,0,1.5-1.3,1.8-2.4
	c0.5-1.8,0.9-3.7,1.4-5.5c0.9,2,1.6,4.2,2.3,6.3c2.8-0.9,4.9-3.7,5.4-6.9c0.9,2.5,2.6,4.8,4.8,6.1c0.8,0.5,1.8,0.9,2.7,0.6
	C160,61.7,160.2,58.9,160,56.9z M140.3,39.9c-0.1,0-0.1,0-0.1,0c0,0-0.1,0-0.1,0c-1.3,0-1.3-2,0-2c0.1,0,0.1,0,0.1,0
	c0,0,0.1,0,0.1,0C141.6,37.9,141.6,39.9,140.3,39.9z M149.5,39.9c-1.3,0-1.3-2,0-2C150.8,37.9,150.8,39.9,149.5,39.9z"/>
<g>
	<g>
		<path class="st5" d="M140.4,41.7c3.2,0,3.2-5,0-5C137.2,36.7,137.2,41.7,140.4,41.7L140.4,41.7z"/>
	</g>
</g>
<g>
	<g>
		<path class="st5" d="M149.6,41.3c3.2,0,3.2-5,0-5S146.4,41.3,149.6,41.3L149.6,41.3z"/>
	</g>
</g>
<path d="M128,0v32h32V0C160,0,128,0,128,0z M140.2,7.8c-0.1,0-0.1,0-0.1,0c0,0-0.1,0-0.1,0c-1.3,0-1.3-2,0-2c0.1,0,0.1,0,0.1,0
	c0,0,0.1,0,0.1,0C141.5,5.8,141.5,7.8,140.2,7.8z M149.4,7.8c-1.3,0-1.3-2,0-2C150.7,5.8,150.7,7.8,149.4,7.8z"/>
<rect x="137.6" y="21" class="st3" width="0.8" height="9.9"/>
<rect x="141.9" y="21.7" class="st3" width="0.8" height="9.9"/>
<path class="st4" d="M160,24.9c-0.6-5.4-1.6-10.7-3.1-15.9c-0.3-1-0.6-2.1-1.2-3c-0.7-1.1-1.7-1.9-2.8-2.5c-2.8-1.8-6-2.9-9.2-3.3
	c-2.7-0.3-5.7,0-7.4,2.4c-0.7,0.9-1.1,2.1-1.5,3.2c-1.3,3.7-2.6,7.3-3.8,11c-0.7,2.1-1.4,4.1-2.2,6.2c-0.4,1-0.7,2.1-0.7,3.2
	c0,1.3,1.1,4.7,1.6,5.9c2.8-0.6,5.2-3.2,5.9-6.3c0.6,1.8,1.4,3.5,2.5,5c0.4,0.6,1,1.2,1.7,1.2c1,0,1.5-1.3,1.8-2.4
	c0.5-1.9,0.9-3.7,1.4-5.5c0.9,2,1.6,4.2,2.3,6.3c2.8-0.9,4.9-3.7,5.4-6.9c0.9,2.5,2.6,4.8,4.8,6.1c0.8,0.5,1.8,0.9,2.7,0.6
	C160,29.6,160.2,26.9,160,24.9z M140.3,7.9c-0.1,0-0.1,0-0.1,0c0,0-0.1,0-0.1,0c-1.3,0-1.3-2,0-2c0.1,0,0.1,0,0.1,0c0,0,0.1,0,0.1,0
	C141.6,5.9,141.6,7.9,140.3,7.9z M149.5,7.9c-1.3,0-1.3-2,0-2C150.8,5.9,150.8,7.9,149.5,7.9z"/>
<g>
	<g>
		<path class="st5" d="M140.2,9.7c3.2,0,3.2-5,0-5S136.9,9.7,140.2,9.7L140.2,9.7z"/>
	</g>
</g>
<path d="M138.8,6.4c-0.9,0-0.9,1.4,0,1.4C139.7,7.8,139.7,6.4,138.8,6.4z"/>
<path class="st4" d="M150.5,5.3C150.5,5.3,150.5,5.3,150.5,5.3C150.5,5.4,150.6,5.4,150.5,5.3z"/>
<path class="st4" d="M152.1,7.2c-0.1-0.1-0.2-0.2-0.3-0.4c-0.1-0.3-0.1-0.7-0.3-1c-0.2-0.2-0.5-0.4-0.8-0.4c-0.1,0-0.1,0-0.2-0.1
	c0,0,0,0,0,0h0l0,0h0c0,0,0,0,0,0c-0.2-0.1-0.4-0.2-0.6-0.2s-0.4,0-0.6,0c-0.1,0-0.1,0-0.2,0c-0.2,0-0.4,0-0.6,0.1
	c-0.2,0.1-0.4,0.1-0.5,0.3c-0.6,0.8-0.2,1.9-0.5,2.9c0,0.1,0.1,0.2,0.1,0.2c1.1,0.7,2.4,0.3,3.5-0.1c0.2-0.1,0.5-0.1,0.8-0.2
	c0.2-0.1,0.5-0.3,0.5-0.6C152.4,7.5,152.2,7.3,152.1,7.2z"/>
<g>
	<g>
		<path class="st5" d="M147.5,9.9c3.2,0,3.2-5,0-5C144.3,4.9,144.3,9.9,147.5,9.9L147.5,9.9z"/>
	</g>
</g>
<path d="M146,6.4c-0.9,0-0.9,1.4,0,1.4C146.9,7.8,146.9,6.4,146,6.4z"/>
<path d="M149.4,38.5c-0.8,0-0.8,1.4,0,1.4S150.2,38.5,149.4,38.5z"/>
<path d="M140.4,38.5c-0.9,0-0.9,1.4,0,1.4C141.3,39.9,141.3,38.5,140.4,38.5z"/>
<path class="st5" d="M218.5,39.4c-0.3-0.5-0.9-1-1.5-1.2c-0.6-0.2-1.4-0.1-1.9,0.2c-0.6,0.3-1,0.8-1.1,1.5c-0.4,1.5-0.7,2.9-1,4.4
	c-1.7,1.2-1.2,4.6,1.4,4.6c1.3,0,2.1-0.8,2.3-1.8c0.5-0.3,1-0.8,1.1-1.4c0.3-1.5,0.6-3,1-4.5C218.9,40.7,218.8,40,218.5,39.4z"/>
<g>
	<path class="st4" d="M206.4,46.8"/>
	<g>
		<path class="st5" d="M206.4,49.3c3.2,0,3.2-5,0-5C203.2,44.3,203.2,49.3,206.4,49.3L206.4,49.3z"/>
	</g>
</g>
<g>
	<path class="st4" d="M207.9,51.5c0.2,1.6,0.1,3.3,0.7,4.8"/>
	<g>
		<path class="st5" d="M205.4,51.5c0.2,1.8,0.1,3.8,0.8,5.5c0.2,0.6,0.6,1.2,1.1,1.5c0.5,0.3,1.3,0.5,1.9,0.2
			c0.6-0.2,1.2-0.6,1.5-1.2c0.3-0.6,0.5-1.3,0.2-1.9c-0.2-0.6-0.3-1.1-0.4-1.7c0,0.2,0.1,0.4,0.1,0.7c-0.1-1-0.1-2.1-0.3-3.1
			c0-0.3-0.1-0.7-0.2-1c-0.1-0.3-0.3-0.6-0.5-0.8c-0.4-0.4-1.1-0.8-1.8-0.7c-0.6,0-1.3,0.2-1.8,0.7
			C205.7,50.2,205.3,50.9,205.4,51.5L205.4,51.5z"/>
	</g>
</g>
<path d="M192,0v32h32V0C224,0,192,0,192,0z M204.2,7.8c-0.1,0-0.1,0-0.1,0c0,0-0.1,0-0.1,0c-1.3,0-1.3-2,0-2c0.1,0,0.1,0,0.1,0
	c0,0,0.1,0,0.1,0C205.5,5.8,205.5,7.8,204.2,7.8z M213.4,7.8c-1.3,0-1.3-2,0-2C214.7,5.8,214.7,7.8,213.4,7.8z"/>
<rect x="201.6" y="21" class="st3" width="0.8" height="9.9"/>
<rect x="221.3" y="0.1" class="st3" width="0" height="0.3"/>
<rect x="205.9" y="21.7" class="st3" width="0.8" height="9.9"/>
<path class="st6" d="M224,24.9c-0.6-5.4-1.6-10.7-3.1-15.9c-0.3-1-0.6-2.1-1.2-3c-0.7-1.1-1.7-1.9-2.8-2.5c-2.8-1.8-6-2.9-9.2-3.3
	c-2.7-0.3-5.7,0-7.4,2.4c-0.7,0.9-1.1,2.1-1.5,3.2c-1.3,3.7-2.6,7.3-3.8,11c-0.7,2.1-1.4,4.1-2.2,6.2c-0.4,1-0.7,2.1-0.7,3.2
	c0,1.3,1.1,4.7,1.6,5.9c2.8-0.6,5.2-3.2,5.9-6.3c0.6,1.8,1.4,3.5,2.5,5c0.4,0.6,1,1.2,1.7,1.2c1,0,1.5-1.3,1.8-2.4
	c0.5-1.9,0.9-3.7,1.4-5.5c0.9,2,1.6,4.2,2.3,6.3c2.8-0.9,4.9-3.7,5.4-6.9c0.9,2.5,2.6,4.8,4.8,6.1c0.8,0.5,1.8,0.9,2.7,0.6
	C224,29.6,224.2,26.9,224,24.9z M204.3,7.9c-0.1,0-0.1,0-0.1,0c0,0-0.1,0-0.1,0c-1.3,0-1.3-2,0-2c0.1,0,0.1,0,0.1,0c0,0,0.1,0,0.1,0
	C205.6,5.9,205.6,7.9,204.3,7.9z M213.5,7.9c-1.3,0-1.3-2,0-2C214.8,5.9,214.8,7.9,213.5,7.9z"/>
<g>
	<g>
		<path class="st5" d="M204.4,9.7c3.2,0,3.2-5,0-5C201.2,4.7,201.2,9.7,204.4,9.7L204.4,9.7z"/>
	</g>
</g>
<g>
	<g>
		<path class="st5" d="M213.6,9.3c3.2,0,3.2-5,0-5C210.4,4.3,210.4,9.3,213.6,9.3L213.6,9.3z"/>
	</g>
</g>
<path d="M204.1,4.7c-1.2,0-1.2,0.8,0,0.8C205.4,5.6,205.3,4.7,204.1,4.7z"/>
<path d="M213.3,4.2c-1.2,0-1.2,0.8,0,0.8C214.5,5.1,214.5,4.2,213.3,4.2z"/>
<path d="M192,32v32h32V32H192z M204.2,39.8c-0.1,0-0.1,0-0.1,0c0,0-0.1,0-0.1,0c-1.3,0-1.3-2,0-2c0.1,0,0.1,0,0.1,0c0,0,0.1,0,0.1,0
	C205.5,37.8,205.5,39.8,204.2,39.8z M213.4,39.8c-1.3,0-1.3-2,0-2S214.7,39.8,213.4,39.8z"/>
<rect x="201.6" y="52.9" class="st3" width="0.8" height="9.9"/>
<rect x="206" y="53.6" class="st3" width="0.8" height="9.9"/>
<path class="st6" d="M224,56.8c-0.6-5.4-1.6-10.7-3.1-15.9c-0.3-1-0.6-2.1-1.2-3c-0.7-1.1-1.7-1.9-2.8-2.5c-2.8-1.8-6-2.9-9.2-3.3
	c-2.7-0.3-5.7,0-7.4,2.4c-0.7,0.9-1.1,2.1-1.5,3.2c-1.3,3.7-2.6,7.3-3.8,11c-0.7,2.1-1.4,4.2-2.2,6.2c-0.4,1-0.7,2.1-0.7,3.2
	c0,1.3,1.1,4.7,1.6,5.9c2.8-0.6,5.2-3.2,5.9-6.3c0.6,1.8,1.4,3.5,2.5,5c0.4,0.6,1,1.2,1.7,1.2c1,0,1.5-1.3,1.8-2.4
	c0.5-1.8,0.9-3.7,1.4-5.5c0.9,2,1.6,4.2,2.3,6.3c2.8-0.9,4.9-3.7,5.4-6.9c0.9,2.5,2.6,4.8,4.8,6.1c0.8,0.5,1.8,0.9,2.7,0.6
	C224,61.6,224.2,58.8,224,56.8z M204.3,39.8c-0.1,0-0.1,0-0.1,0c0,0-0.1,0-0.1,0c-1.3,0-1.3-2,0-2c0.1,0,0.1,0,0.1,0
	c0,0,0.1,0,0.1,0C205.6,37.8,205.6,39.8,204.3,39.8z M213.5,39.8c-1.3,0-1.3-2,0-2S214.8,39.8,213.5,39.8z"/>
<g>
	<g>
		<path class="st5" d="M204.4,41.6c3.2,0,3.2-5,0-5C201.2,36.6,201.2,41.6,204.4,41.6L204.4,41.6z"/>
	</g>
</g>
<g>
	<g>
		<path class="st5" d="M213.6,41.1c3.2,0,3.2-5,0-5C210.4,36.1,210.4,41.1,213.6,41.1L213.6,41.1z"/>
	</g>
</g>
<path d="M224,0v32h32V0H224z M236.2,7.8c0,0-0.1,0-0.1,0c0,0-0.1,0-0.1,0c-1.3,0-1.3-2,0-2c0.1,0,0.1,0,0.1,0c0,0,0.1,0,0.1,0
	C237.5,5.8,237.5,7.8,236.2,7.8z M245.4,7.8c-1.3,0-1.3-2,0-2C246.7,5.8,246.7,7.8,245.4,7.8z"/>
<rect x="233.6" y="20.9" class="st3" width="0.8" height="9.9"/>
<rect x="237.9" y="21.6" class="st3" width="0.8" height="9.9"/>
<path class="st6" d="M256,24.8c-0.6-5.4-1.6-10.7-3.1-15.9c-0.3-1-0.6-2.1-1.2-3c-0.7-1.1-1.7-1.9-2.8-2.5c-2.8-1.8-6-2.9-9.2-3.3
	c-2.7-0.3-5.7,0-7.4,2.4c-0.7,0.9-1.1,2.1-1.5,3.2c-1.3,3.7-2.6,7.3-3.8,11c-0.7,2.1-1.4,4.1-2.2,6.2c-0.4,1-0.7,2.1-0.7,3.2
	c0,1.3,1.1,4.7,1.6,5.9c2.8-0.6,5.2-3.2,5.9-6.3c0.6,1.8,1.4,3.5,2.5,5c0.4,0.6,1,1.2,1.7,1.2c1,0,1.5-1.3,1.8-2.4
	c0.5-1.9,0.9-3.7,1.4-5.5c0.9,2,1.6,4.2,2.3,6.3c2.8-0.9,4.9-3.7,5.4-6.9c0.9,2.5,2.6,4.8,4.8,6.1c0.8,0.5,1.8,0.9,2.7,0.6
	C256,29.6,256.2,26.9,256,24.8z M236.3,7.8c-0.1,0-0.1,0-0.1,0c0,0-0.1,0-0.1,0c-1.3,0-1.3-2,0-2c0.1,0,0.1,0,0.1,0c0,0,0.1,0,0.1,0
	C237.6,5.8,237.6,7.8,236.3,7.8z M245.5,7.8c-1.3,0-1.3-2,0-2C246.8,5.8,246.8,7.8,245.5,7.8z"/>
<g>
	<g>
		<path class="st5" d="M236.2,9.6c3.2,0,3.2-5,0-5C232.9,4.6,232.9,9.6,236.2,9.6L236.2,9.6z"/>
	</g>
</g>
<path d="M234.8,6.3c-0.9,0-0.9,1.4,0,1.4C235.7,7.7,235.7,6.3,234.8,6.3z"/>
<path class="st4" d="M246.5,5.2L246.5,5.2C246.5,5.3,246.6,5.3,246.5,5.2z"/>
<path class="st6" d="M248.1,7.1c-0.1-0.1-0.2-0.2-0.3-0.4c-0.1-0.3-0.1-0.7-0.3-1c-0.2-0.2-0.5-0.4-0.8-0.4c-0.1,0-0.1,0-0.2-0.1
	c0,0,0,0,0,0h0l0,0h0c0,0,0,0,0,0c-0.2-0.1-0.4-0.2-0.6-0.2s-0.4,0-0.6,0c-0.1,0-0.1,0-0.2,0c-0.2,0-0.4,0-0.6,0.1
	c-0.2,0.1-0.4,0.1-0.5,0.3c-0.6,0.8-0.2,1.9-0.5,2.9c0,0.1,0.1,0.2,0.1,0.2c1.1,0.7,2.4,0.3,3.5-0.1c0.2-0.1,0.5-0.1,0.8-0.2
	c0.2-0.1,0.5-0.3,0.5-0.6C248.4,7.4,248.2,7.2,248.1,7.1z"/>
<g>
	<g>
		<path class="st5" d="M243.5,9.8c3.2,0,3.2-5,0-5C240.3,4.8,240.3,9.8,243.5,9.8L243.5,9.8z"/>
	</g>
</g>
<path d="M242,6.4c-0.9,0-0.9,1.4,0,1.4C242.9,7.8,242.9,6.4,242,6.4z"/>
<path d="M213.4,38.4c-0.8,0-0.8,1.4,0,1.4C214.2,39.8,214.2,38.4,213.4,38.4z"/>
<path d="M204.5,38.4c-0.9,0-0.9,1.4,0,1.4C205.4,39.8,205.4,38.4,204.5,38.4z"/>
<path d="M224,32v32h32V32H224z M236.2,39.8c-0.1,0-0.1,0-0.1,0c0,0-0.1,0-0.1,0c-1.3,0-1.3-2,0-2c0.1,0,0.1,0,0.1,0c0,0,0.1,0,0.1,0
	C237.5,37.8,237.5,39.8,236.2,39.8z M245.4,39.8c-1.3,0-1.3-2,0-2S246.7,39.8,245.4,39.8z"/>
<rect x="233.6" y="52.8" class="st3" width="0.8" height="9.9"/>
<rect x="327.2" y="54.8" class="st3" width="0" height="0.3"/>
<rect x="238" y="53.6" class="st3" width="0.8" height="9.9"/>
<path class="st6" d="M256,56.8c-0.6-5.4-1.6-10.7-3.1-15.9c-0.3-1-0.6-2.1-1.2-3c-0.7-1.1-1.7-1.9-2.8-2.5c-2.8-1.8-6-2.9-9.2-3.3
	c-2.7-0.3-5.7,0-7.4,2.4c-0.7,0.9-1.1,2.1-1.5,3.2c-1.3,3.7-2.6,7.3-3.8,11c-0.7,2.1-1.4,4.2-2.2,6.2c-0.4,1-0.7,2.1-0.7,3.2
	c0,1.3,1.1,4.7,1.6,5.9c2.8-0.6,5.2-3.2,5.9-6.3c0.6,1.8,1.4,3.5,2.5,5c0.4,0.6,1,1.2,1.7,1.2c1,0,1.5-1.3,1.8-2.4
	c0.5-1.8,0.9-3.7,1.4-5.5c0.9,2,1.6,4.2,2.3,6.3c2.8-0.9,4.9-3.7,5.4-6.9c0.9,2.5,2.6,4.8,4.8,6.1c0.8,0.5,1.8,0.9,2.7,0.6
	C256,61.6,256.2,58.8,256,56.8z M236.3,39.8c-0.1,0-0.1,0-0.1,0c0,0-0.1,0-0.1,0c-1.3,0-1.3-2,0-2c0.1,0,0.1,0,0.1,0
	c0,0,0.1,0,0.1,0C237.6,37.8,237.6,39.8,236.3,39.8z M245.5,39.8c-1.3,0-1.3-2,0-2S246.8,39.8,245.5,39.8z"/>
<path class="st4" d="M246.5,37.2C246.5,37.2,246.5,37.2,246.5,37.2C246.6,37.3,246.6,37.3,246.5,37.2z"/>
<path class="st6" d="M248.1,39.1c-0.1-0.1-0.2-0.2-0.3-0.4c-0.1-0.3-0.1-0.7-0.3-1c-0.2-0.2-0.5-0.4-0.8-0.5c-0.1,0-0.1,0-0.2-0.1
	c0,0,0,0,0,0h0l0,0h0c0,0,0,0,0,0c-0.2-0.1-0.4-0.2-0.6-0.2s-0.4,0-0.6,0c-0.1,0-0.1,0-0.2,0c-0.2,0-0.4,0-0.6,0.1
	c-0.2,0-0.4,0.1-0.5,0.3c-0.6,0.8-0.2,1.9-0.5,2.9c0,0.1,0.1,0.2,0.1,0.2c1.1,0.7,2.4,0.3,3.5,0c0.2-0.1,0.5-0.1,0.8-0.2
	c0.2-0.1,0.5-0.3,0.5-0.6C248.4,39.4,248.3,39.2,248.1,39.1z"/>
<g>
	<g>
		<path class="st5" d="M247.5,42.2c3.2,0,3.2-5,0-5C244.3,37.2,244.3,42.2,247.5,42.2L247.5,42.2z"/>
	</g>
</g>
<path d="M248.4,39.2c-0.9,0-0.9,1.4,0,1.4C249.3,40.5,249.3,39.2,248.4,39.2z"/>
<g>
	<g>
		<path class="st5" d="M241.1,42.3c3.2,0,3.2-5,0-5S237.8,42.3,241.1,42.3L241.1,42.3z"/>
	</g>
</g>
<path d="M242,39.2c-0.9,0-0.9,1.4,0,1.4C242.9,40.5,242.9,39.2,242,39.2z"/>
<g>
	<path class="st6" d="M236,38.8"/>
	<g>
		<path class="st6" d="M236,41.3c3.2,0,3.2-5,0-5S232.8,41.3,236,41.3L236,41.3z"/>
	</g>
</g>
<path d="M160,0v32h32V0C192,0,160,0,160,0z M172.2,7.8c-0.1,0-0.1,0-0.1,0c0,0-0.1,0-0.1,0c-1.3,0-1.3-2,0-2c0.1,0,0.1,0,0.1,0
	c0,0,0.1,0,0.1,0C173.5,5.8,173.5,7.8,172.2,7.8z M181.4,7.8c-1.3,0-1.3-2,0-2C182.7,5.8,182.7,7.8,181.4,7.8z"/>
<rect x="169.6" y="21" class="st3" width="0.8" height="9.9"/>
<rect x="173.9" y="21.7" class="st3" width="0.8" height="9.9"/>
<path class="st4" d="M192,24.9c-0.6-5.4-1.6-10.7-3.1-15.9c-0.3-1-0.6-2.1-1.2-3c-0.7-1.1-1.7-1.9-2.8-2.5c-2.8-1.8-6-2.9-9.2-3.3
	c-2.7-0.3-5.7,0-7.4,2.4c-0.7,0.9-1.1,2.1-1.5,3.2c-1.3,3.7-2.6,7.3-3.8,11c-0.7,2.1-1.4,4.1-2.2,6.2c-0.4,1-0.7,2.1-0.7,3.2
	c0,1.3,1.1,4.7,1.6,5.9c2.8-0.6,5.2-3.2,5.9-6.3c0.6,1.8,1.4,3.5,2.5,5c0.4,0.6,1,1.2,1.7,1.2c1,0,1.5-1.3,1.8-2.4
	c0.5-1.9,0.9-3.7,1.4-5.5c0.9,2,1.6,4.2,2.3,6.3c2.8-0.9,4.9-3.7,5.4-6.9c0.9,2.5,2.6,4.8,4.8,6.1c0.8,0.5,1.8,0.9,2.7,0.6
	C192,29.6,192.2,26.9,192,24.9z M172.3,7.9c-0.1,0-0.1,0-0.1,0c0,0-0.1,0-0.1,0c-1.3,0-1.3-2,0-2c0.1,0,0.1,0,0.1,0c0,0,0.1,0,0.1,0
	C173.6,5.9,173.6,7.9,172.3,7.9z M181.5,7.9c-1.3,0-1.3-2,0-2C182.8,5.9,182.8,7.9,181.5,7.9z"/>
<path class="st4" d="M182.5,5.3C182.5,5.3,182.5,5.3,182.5,5.3C182.5,5.4,182.6,5.4,182.5,5.3z"/>
<path class="st4" d="M184.1,7.2c-0.1-0.1-0.2-0.2-0.3-0.4c-0.1-0.3-0.1-0.7-0.3-1c-0.2-0.2-0.5-0.4-0.8-0.4c-0.1,0-0.1,0-0.2-0.1
	c0,0,0,0,0,0h0l0,0h0c0,0,0,0,0,0c-0.2-0.1-0.4-0.2-0.6-0.2s-0.4,0-0.6,0c-0.1,0-0.1,0-0.2,0c-0.2,0-0.4,0-0.6,0.1
	c-0.2,0.1-0.4,0.1-0.5,0.3c-0.6,0.8-0.2,1.9-0.5,2.9c0,0.1,0.1,0.2,0.1,0.2c1.1,0.7,2.4,0.3,3.5-0.1c0.2-0.1,0.5-0.1,0.8-0.2
	c0.2-0.1,0.5-0.3,0.5-0.6C184.4,7.5,184.2,7.3,184.1,7.2z"/>
<g>
	<g>
		<path class="st5" d="M183.5,10.3c3.2,0,3.2-5,0-5S180.3,10.3,183.5,10.3L183.5,10.3z"/>
	</g>
</g>
<path d="M184.4,7.2c-0.9,0-0.9,1.4,0,1.4C185.3,8.6,185.3,7.2,184.4,7.2z"/>
<g>
	<g>
		<path class="st5" d="M177,10.4c3.2,0,3.2-5,0-5C173.8,5.4,173.8,10.4,177,10.4L177,10.4z"/>
	</g>
</g>
<path d="M177.9,7.2c-0.9,0-0.9,1.4,0,1.4C178.8,8.6,178.8,7.2,177.9,7.2z"/>
<g>
	<path class="st4" d="M171.9,6.9"/>
	<g>
		<path class="st4" d="M171.9,9.4c3.2,0,3.2-5,0-5C168.7,4.4,168.7,9.4,171.9,9.4L171.9,9.4z"/>
	</g>
</g>
<path d="M96,32v32h32V32C128,32,96,32,96,32z M108.2,39.9c-0.1,0-0.1,0-0.1,0c0,0-0.1,0-0.1,0c-1.3,0-1.3-2,0-2c0.1,0,0.1,0,0.1,0
	c0,0,0.1,0,0.1,0C109.5,37.9,109.5,39.9,108.2,39.9z M117.4,39.9c-1.3,0-1.3-2,0-2C118.7,37.9,118.7,39.9,117.4,39.9z"/>
<rect x="105.3" y="52.9" class="st3" width="0.8" height="9.9"/>
<rect x="124.2" y="33" class="st3" width="0" height="0.3"/>
<rect x="109.6" y="53.5" class="st3" width="0.8" height="9.9"/>
<path class="st7" d="M128,56.9c-0.6-5.4-1.6-10.7-3.1-15.9c-0.3-1-0.6-2.1-1.2-3c-0.7-1.1-1.7-1.9-2.8-2.5c-2.8-1.8-6-2.9-9.2-3.3
	c-2.7-0.3-5.7,0-7.4,2.4c-0.7,0.9-1.1,2.1-1.5,3.2c-1.3,3.7-2.6,7.3-3.8,11c-0.7,2.1-1.4,4.2-2.2,6.2c-0.3,1-0.7,2.1-0.7,3.2
	c0,1.3,1.1,4.7,1.6,5.9c2.8-0.6,5.2-3.2,5.9-6.3c0.6,1.8,1.4,3.5,2.5,5c0.4,0.6,1,1.2,1.7,1.2c1,0,1.5-1.3,1.8-2.4
	c0.5-1.8,0.9-3.7,1.4-5.5c0.9,2,1.7,4.2,2.3,6.3c2.8-0.9,4.9-3.7,5.4-6.9c0.9,2.5,2.6,4.8,4.8,6.1c0.8,0.5,1.8,0.9,2.7,0.6
	C128,61.7,128.2,58.9,128,56.9z M108.3,39.9c-0.1,0-0.1,0-0.1,0c0,0-0.1,0-0.1,0c-1.3,0-1.3-2,0-2c0.1,0,0.1,0,0.1,0
	c0,0,0.1,0,0.1,0C109.6,37.9,109.6,39.9,108.3,39.9z M117.5,39.9c-1.3,0-1.3-2,0-2C118.8,37.9,118.8,39.9,117.5,39.9z"/>
<g>
	<g>
		<path class="st5" d="M108.1,41.6c3.2,0,3.2-5,0-5S104.9,41.6,108.1,41.6L108.1,41.6z"/>
	</g>
</g>
<g>
	<g>
		<path class="st5" d="M117.6,41.3c3.2,0,3.2-5,0-5S114.4,41.3,117.6,41.3L117.6,41.3z"/>
	</g>
</g>
<path d="M107.8,36.6c-1.2,0-1.2,0.8,0,0.8C109,37.4,109,36.6,107.8,36.6z"/>
<path d="M117.3,36.2c-1.2,0-1.2,0.8,0,0.8S118.5,36.2,117.3,36.2z"/>
<path d="M64,64v32h32V64C96,64,64,64,64,64z M76.2,71.8c-0.1,0-0.1,0-0.1,0c0,0-0.1,0-0.1,0c-1.3,0-1.3-2,0-2c0.1,0,0.1,0,0.1,0
	c0,0,0.1,0,0.1,0C77.5,69.8,77.5,71.8,76.2,71.8z M85.4,71.8c-1.3,0-1.3-2,0-2C86.7,69.8,86.7,71.8,85.4,71.8z"/>
<rect x="71" y="79.6" class="st3" width="0.8" height="9.9"/>
<rect x="75.3" y="80.3" class="st3" width="0.8" height="9.9"/>
<path class="st8" d="M95.9,88.7c-0.6-5.4-1.6-10.7-3.1-15.9c-0.3-1-0.6-2.1-1.2-3c-0.7-1.1-1.7-1.9-2.8-2.6c-2.8-1.8-6-2.9-9.2-3.3
	c-2.7-0.3-5.7,0-7.4,2.4c-0.7,0.9-1.1,2.1-1.5,3.2c-1.3,3.7-2.6,7.3-3.8,11c-0.7,2.1-1.4,4.2-2.2,6.2c-0.3,1.1-0.7,2.1-0.7,3.2
	c0,1.3,1.1,4.7,1.6,5.9c2.8-0.6,5.2-3.2,5.9-6.3c0.6,1.8,1.4,3.5,2.5,5c0.4,0.6,1,1.2,1.7,1.2c1,0,1.5-1.3,1.8-2.4
	c0.5-1.8,0.9-3.7,1.4-5.5c0.9,2.1,1.7,4.2,2.3,6.3c2.8-0.9,4.9-3.7,5.4-6.9c0.9,2.6,2.6,4.8,4.8,6.1c0.8,0.5,1.8,0.9,2.7,0.6
	C95.9,93.5,96.2,90.8,95.9,88.7z M76.2,71.8c-0.1,0-0.1,0-0.1,0c0,0-0.1,0-0.1,0c-1.3,0-1.3-2,0-2c0.1,0,0.1,0,0.1,0
	c0,0,0.1,0,0.1,0C77.5,69.8,77.5,71.8,76.2,71.8z M85.4,71.8c-1.3,0-1.3-2,0-2C86.7,69.8,86.7,71.8,85.4,71.8z"/>
<g>
	<g>
		<path class="st5" d="M76.3,73.5c3.2,0,3.2-5,0-5S73.1,73.5,76.3,73.5L76.3,73.5z"/>
	</g>
</g>
<g>
	<g>
		<path class="st5" d="M85.5,73.2c3.2,0,3.2-5,0-5S82.3,73.2,85.5,73.2L85.5,73.2z"/>
	</g>
</g>
<path d="M96,64v32h32V64H96z M108.2,71.8c-0.1,0-0.1,0-0.1,0c0,0-0.1,0-0.1,0c-1.3,0-1.3-2,0-2c0.1,0,0.1,0,0.1,0c0,0,0.1,0,0.1,0
	C109.5,69.8,109.5,71.8,108.2,71.8z M117.4,71.8c-1.3,0-1.3-2,0-2S118.7,71.8,117.4,71.8z"/>
<rect x="106.2" y="85.7" class="st3" width="0.8" height="9.9"/>
<rect x="109.9" y="85.5" class="st3" width="0.8" height="9.9"/>
<path class="st7" d="M127.9,88.7c-0.6-5.4-1.6-10.7-3.1-15.9c-0.3-1-0.6-2.1-1.2-3c-0.7-1.1-1.7-1.9-2.8-2.6c-2.8-1.8-6-2.9-9.2-3.3
	c-2.7-0.3-5.7,0-7.4,2.4c-0.7,0.9-1.1,2.1-1.5,3.2c-1.3,3.7-2.6,7.3-3.8,11c-0.7,2.1-1.4,4.2-2.2,6.2c-0.3,1.1-0.7,2.1-0.7,3.2
	c0,1.3,1.1,4.7,1.6,5.9c2.8-0.6,5.2-3.2,5.9-6.3c0.6,1.8,1.4,3.5,2.5,5c0.4,0.6,1,1.2,1.7,1.2c1,0,1.5-1.3,1.8-2.4
	c0.5-1.8,0.9-3.7,1.4-5.5c0.9,2.1,1.7,4.2,2.3,6.3c2.8-0.9,4.9-3.7,5.4-6.9c0.9,2.6,2.6,4.8,4.8,6.1c0.8,0.5,1.8,0.9,2.7,0.6
	C128,93.5,128.2,90.8,127.9,88.7z M108.3,71.8c-0.1,0-0.1,0-0.1,0c0,0-0.1,0-0.1,0c-1.3,0-1.3-2,0-2c0.1,0,0.1,0,0.1,0
	c0,0,0.1,0,0.1,0C109.6,69.8,109.6,71.8,108.3,71.8z M117.5,71.8c-1.3,0-1.3-2,0-2S118.7,71.8,117.5,71.8z"/>
<g>
	<g>
		<path class="st5" d="M107.8,73.3c3.2,0,3.2-5,0-5C104.6,68.3,104.6,73.3,107.8,73.3L107.8,73.3z"/>
	</g>
</g>
<path d="M106.8,70.3c-0.9,0-0.9,1.4,0,1.4C107.7,71.7,107.7,70.3,106.8,70.3z"/>
<path class="st4" d="M118.2,68.9L118.2,68.9C118.2,68.9,118.3,68.9,118.2,68.9z"/>
<path class="st8" d="M120.1,71.1c-0.1-0.1-0.2-0.2-0.3-0.4c-0.1-0.3-0.1-0.7-0.3-1c-0.2-0.2-0.5-0.4-0.8-0.4c-0.1,0-0.2,0-0.2-0.1
	c0,0,0,0,0,0h0l0,0h0c0,0,0,0,0,0c-0.2-0.1-0.4-0.2-0.6-0.2c-0.2,0-0.4,0-0.6,0c-0.1,0-0.1,0-0.2,0c-0.2,0-0.4,0-0.6,0.1
	c-0.2,0.1-0.3,0.1-0.5,0.3c-0.6,0.8-0.2,1.9-0.5,2.9c0,0.1,0.1,0.2,0.1,0.2c1.1,0.7,2.4,0.3,3.5-0.1c0.2-0.1,0.5-0.1,0.8-0.2
	c0.2-0.1,0.5-0.3,0.5-0.6C120.4,71.3,120.2,71.2,120.1,71.1z"/>
<g>
	<g>
		<path class="st5" d="M115.2,73.4c3.2,0,3.2-5,0-5S112,73.4,115.2,73.4L115.2,73.4z"/>
	</g>
</g>
<path d="M114,70.3c-0.9,0-0.9,1.4,0,1.4C114.9,71.7,114.9,70.3,114,70.3z"/>
<path d="M85.3,70.3c-0.8,0-0.8,1.4,0,1.4C86.1,71.7,86.1,70.3,85.3,70.3z"/>
<path d="M76.4,70.3c-0.9,0-0.9,1.4,0,1.4C77.3,71.7,77.3,70.3,76.4,70.3z"/>
<path d="M128,64v32h32V64H128z M140.2,71.9c-0.1,0-0.1,0-0.1,0c0,0-0.1,0-0.1,0c-1.3,0-1.3-2,0-2c0.1,0,0.1,0,0.1,0c0,0,0.1,0,0.1,0
	C141.5,69.9,141.5,71.9,140.2,71.9z M149.4,71.9c-1.3,0-1.3-2,0-2S150.7,71.9,149.4,71.9z"/>
<rect x="137.5" y="84.9" class="st3" width="0.8" height="9.9"/>
<rect x="141.8" y="85.7" class="st3" width="0.8" height="9.9"/>
<path class="st8" d="M159.8,88.9c-0.6-5.4-1.6-10.7-3.1-15.9c-0.3-1-0.6-2.1-1.2-3c-0.7-1.1-1.7-1.9-2.8-2.6c-2.8-1.8-6-2.9-9.2-3.3
	c-2.7-0.3-5.7,0-7.4,2.4c-0.7,0.9-1.1,2.1-1.5,3.2c-1.3,3.7-2.6,7.3-3.8,11c-0.7,2.1-1.4,4.2-2.2,6.2c-0.4,1.1-0.7,2.1-0.7,3.2
	c0,1.3,1,4.7,1.6,5.9c2.8-0.6,5.2-3.2,5.9-6.3c0.6,1.8,1.4,3.5,2.5,5c0.4,0.6,1,1.2,1.7,1.2c1,0,1.5-1.3,1.8-2.4
	c0.5-1.8,0.9-3.7,1.4-5.5c0.9,2.1,1.6,4.2,2.3,6.3c2.8-0.9,4.9-3.7,5.4-6.9c0.9,2.6,2.6,4.8,4.8,6.1c0.8,0.5,1.8,0.9,2.7,0.6
	C159.9,93.7,160.1,90.9,159.8,88.9z M140.2,71.9c-0.1,0-0.1,0-0.1,0c0,0-0.1,0-0.1,0c-1.3,0-1.3-2,0-2c0.1,0,0.1,0,0.1,0
	c0,0,0.1,0,0.1,0C141.4,69.9,141.4,71.9,140.2,71.9z M149.4,71.9c-1.3,0-1.3-2,0-2S150.6,71.9,149.4,71.9z"/>
<path class="st4" d="M150.5,69.2L150.5,69.2C150.5,69.3,150.6,69.3,150.5,69.2z"/>
<path class="st8" d="M152.2,71.3c-0.1-0.1-0.2-0.2-0.3-0.4c-0.1-0.3-0.1-0.7-0.3-1c-0.2-0.2-0.5-0.4-0.8-0.4c-0.1,0-0.1,0-0.2-0.1
	c0,0,0,0,0,0h0l0,0h0c0,0,0,0,0,0c-0.2-0.1-0.4-0.2-0.6-0.2s-0.4,0-0.6,0c-0.1,0-0.1,0-0.2,0c-0.2,0-0.4,0-0.6,0.1
	c-0.2,0.1-0.4,0.1-0.5,0.3c-0.6,0.8-0.2,1.9-0.5,2.9c0,0.1,0.1,0.2,0.1,0.2c1.1,0.7,2.4,0.3,3.5-0.1c0.2-0.1,0.5-0.1,0.8-0.2
	c0.2-0.1,0.5-0.3,0.5-0.6C152.4,71.6,152.3,71.4,152.2,71.3z"/>
<g>
	<g>
		<path class="st5" d="M151.5,74.3c3.2,0,3.2-5,0-5S148.3,74.3,151.5,74.3L151.5,74.3z"/>
	</g>
</g>
<path d="M152.4,71.2c-0.9,0-0.9,1.4,0,1.4C153.3,72.6,153.3,71.2,152.4,71.2z"/>
<g>
	<g>
		<path class="st5" d="M145.1,74.6c3.2,0,3.2-5,0-5S141.9,74.6,145.1,74.6L145.1,74.6z"/>
	</g>
</g>
<path d="M146,71.3c-0.9,0-0.9,1.4,0,1.4C146.9,72.7,146.9,71.3,146,71.3z"/>
<g>
	<path class="st8" d="M139.9,70.9"/>
	<g>
		<path class="st8" d="M139.9,73.4c3.2,0,3.2-5,0-5C136.7,68.4,136.7,73.4,139.9,73.4L139.9,73.4z"/>
	</g>
</g>
<path d="M160,32v32h32V32C192,32,160,32,160,32z M172.2,39.9c-0.1,0-0.1,0-0.1,0c0,0-0.1,0-0.1,0c-1.3,0-1.3-2,0-2
	c0.1,0,0.1,0,0.1,0c0,0,0.1,0,0.1,0C173.5,37.9,173.5,39.9,172.2,39.9z M181.4,39.9c-1.3,0-1.3-2,0-2
	C182.7,37.9,182.7,39.9,181.4,39.9z"/>
<rect x="169.6" y="53" class="st3" width="0.8" height="9.9"/>
<rect x="173.9" y="53.7" class="st3" width="0.8" height="9.9"/>
<path class="st9" d="M192,56.9c-0.6-5.4-1.6-10.7-3.1-15.9c-0.3-1-0.6-2.1-1.2-3c-0.7-1.1-1.7-1.9-2.8-2.5c-2.8-1.8-6-2.9-9.2-3.3
	c-2.7-0.3-5.7,0-7.4,2.4c-0.7,0.9-1.1,2.1-1.5,3.2c-1.3,3.7-2.6,7.3-3.8,11c-0.7,2.1-1.4,4.2-2.2,6.2c-0.4,1-0.7,2.1-0.7,3.2
	c0,1.3,1.1,4.7,1.6,5.9c2.8-0.6,5.2-3.2,5.9-6.3c0.6,1.8,1.4,3.5,2.5,5c0.4,0.6,1,1.2,1.7,1.2c1,0,1.5-1.3,1.8-2.4
	c0.5-1.8,0.9-3.7,1.4-5.5c0.9,2,1.6,4.2,2.3,6.3c2.8-0.9,4.9-3.7,5.4-6.9c0.9,2.5,2.6,4.8,4.8,6.1c0.8,0.5,1.8,0.9,2.7,0.6
	C192,61.7,192.2,58.9,192,56.9z M172.3,39.9c-0.1,0-0.1,0-0.1,0c0,0-0.1,0-0.1,0c-1.3,0-1.3-2,0-2c0.1,0,0.1,0,0.1,0
	c0,0,0.1,0,0.1,0C173.6,37.9,173.6,39.9,172.3,39.9z M181.5,39.9c-1.3,0-1.3-2,0-2C182.8,37.9,182.8,39.9,181.5,39.9z"/>
<g>
	<g>
		<path class="st5" d="M172.4,41.7c3.2,0,3.2-5,0-5C169.2,36.7,169.2,41.7,172.4,41.7L172.4,41.7z"/>
	</g>
</g>
<g>
	<g>
		<path class="st5" d="M181.6,41.3c3.2,0,3.2-5,0-5S178.4,41.3,181.6,41.3L181.6,41.3z"/>
	</g>
</g>
<path d="M172.1,36.7c-1.2,0-1.2,0.8,0,0.8C173.4,37.6,173.3,36.7,172.1,36.7z"/>
<path d="M181.3,36.1c-1.2,0-1.2,0.8,0,0.8C182.5,37,182.5,36.1,181.3,36.1z"/>
<path d="M160,64v32h32V64H160z M172.2,71.9c-0.1,0-0.1,0-0.1,0c0,0-0.1,0-0.1,0c-1.3,0-1.3-2,0-2c0.1,0,0.1,0,0.1,0c0,0,0.1,0,0.1,0
	C173.5,69.9,173.5,71.9,172.2,71.9z M181.4,71.9c-1.3,0-1.3-2,0-2S182.7,71.9,181.4,71.9z"/>
<rect x="169.5" y="85" class="st3" width="0.8" height="9.9"/>
<rect x="173.8" y="85.7" class="st3" width="0.8" height="9.9"/>
<path class="st9" d="M191.9,88.9c-0.6-5.4-1.6-10.7-3.1-15.9c-0.3-1-0.6-2.1-1.2-3c-0.7-1.1-1.7-1.9-2.8-2.6c-2.8-1.8-6-2.9-9.2-3.3
	c-2.7-0.3-5.7,0-7.4,2.4c-0.7,0.9-1.1,2.1-1.5,3.2c-1.3,3.7-2.6,7.3-3.8,11c-0.7,2.1-1.4,4.2-2.2,6.2c-0.4,1.1-0.7,2.1-0.7,3.2
	c0,1.3,1.1,4.7,1.6,5.9c2.8-0.6,5.2-3.2,5.9-6.3c0.6,1.8,1.4,3.5,2.5,5c0.4,0.6,1,1.2,1.7,1.2c1,0,1.5-1.3,1.8-2.4
	c0.5-1.8,0.9-3.7,1.4-5.5c0.9,2.1,1.6,4.2,2.3,6.3c2.8-0.9,4.9-3.7,5.4-6.9c0.9,2.6,2.6,4.8,4.8,6.1c0.8,0.5,1.8,0.9,2.7,0.6
	C191.9,93.7,192.1,90.9,191.9,88.9z M172.2,71.9c-0.1,0-0.1,0-0.1,0c0,0-0.1,0-0.1,0c-1.3,0-1.3-2,0-2c0.1,0,0.1,0,0.1,0
	c0,0,0.1,0,0.1,0C173.5,69.9,173.5,71.9,172.2,71.9z M181.4,71.9c-1.3,0-1.3-2,0-2S182.6,71.9,181.4,71.9z"/>
<g>
	<g>
		<path class="st5" d="M171.7,73.7c3.2,0,3.2-5,0-5S168.4,73.7,171.7,73.7L171.7,73.7z"/>
	</g>
</g>
<g>
	<g>
		<path class="st5" d="M180.9,73.3c3.2,0,3.2-5,0-5C177.6,68.3,177.6,73.3,180.9,73.3L180.9,73.3z"/>
	</g>
</g>
<path d="M224,64v32h32V64H224z M236.2,71.8c-0.1,0-0.1,0-0.1,0c0,0-0.1,0-0.1,0c-1.3,0-1.3-2,0-2c0.1,0,0.1,0,0.1,0c0,0,0.1,0,0.1,0
	C237.5,69.8,237.5,71.8,236.2,71.8z M245.4,71.8c-1.3,0-1.3-2,0-2C246.7,69.8,246.7,71.8,245.4,71.8z"/>
<rect x="233.5" y="84.9" class="st3" width="0.8" height="9.9"/>
<rect x="253.2" y="64.1" class="st3" width="0" height="0.3"/>
<rect x="237.8" y="85.6" class="st3" width="0.8" height="9.9"/>
<path class="st9" d="M255.9,88.8c-0.6-5.4-1.6-10.7-3.1-15.9c-0.3-1-0.6-2.1-1.2-3c-0.7-1.1-1.7-1.9-2.8-2.6c-2.8-1.8-6-2.9-9.2-3.3
	c-2.7-0.3-5.7,0-7.4,2.4c-0.7,0.9-1.1,2.1-1.5,3.2c-1.3,3.7-2.6,7.3-3.8,11c-0.7,2.1-1.4,4.2-2.2,6.2c-0.4,1.1-0.7,2.1-0.7,3.2
	c0,1.3,1.1,4.7,1.6,5.9c2.8-0.6,5.2-3.2,5.9-6.3c0.6,1.8,1.4,3.5,2.5,5c0.4,0.6,1,1.2,1.7,1.2c1,0,1.5-1.3,1.8-2.4
	c0.5-1.8,0.9-3.7,1.4-5.5c0.9,2.1,1.6,4.2,2.3,6.3c2.8-0.9,4.9-3.7,5.4-6.9c0.9,2.6,2.6,4.8,4.8,6.1c0.8,0.5,1.8,0.9,2.7,0.6
	C255.9,93.6,256.1,90.8,255.9,88.8z M236.2,71.8c-0.1,0-0.1,0-0.1,0c0,0-0.1,0-0.1,0c-1.3,0-1.3-2,0-2c0.1,0,0.1,0,0.1,0
	c0,0,0.1,0,0.1,0C237.5,69.8,237.5,71.8,236.2,71.8z M245.4,71.8c-1.3,0-1.3-2,0-2C246.7,69.8,246.7,71.8,245.4,71.8z"/>
<g>
	<g>
		<path class="st5" d="M236.1,73.6c3.2,0,3.2-5,0-5C232.8,68.6,232.8,73.6,236.1,73.6L236.1,73.6z"/>
	</g>
</g>
<path d="M234.7,70.3c-0.9,0-0.9,1.4,0,1.4C235.6,71.7,235.6,70.3,234.7,70.3z"/>
<path class="st4" d="M246.4,69.2L246.4,69.2C246.4,69.3,246.5,69.3,246.4,69.2z"/>
<path class="st9" d="M248,71.1c-0.1-0.1-0.2-0.2-0.3-0.4c-0.1-0.3-0.1-0.7-0.3-1c-0.2-0.2-0.5-0.4-0.8-0.4c-0.1,0-0.1,0-0.2-0.1
	c0,0,0,0,0,0h0l0,0h0c0,0,0,0,0,0c-0.2-0.1-0.4-0.2-0.6-0.2s-0.4,0-0.6,0c-0.1,0-0.1,0-0.2,0c-0.2,0-0.4,0-0.6,0.1
	c-0.2,0.1-0.4,0.1-0.5,0.3c-0.6,0.8-0.2,1.9-0.5,2.9c0,0.1,0.1,0.2,0.1,0.2c1.1,0.7,2.4,0.3,3.5-0.1c0.2-0.1,0.5-0.1,0.8-0.2
	c0.2-0.1,0.5-0.3,0.5-0.6C248.3,71.4,248.1,71.2,248,71.1z"/>
<g>
	<g>
		<path class="st5" d="M243.4,73.8c3.2,0,3.2-5,0-5C240.2,68.8,240.2,73.8,243.4,73.8L243.4,73.8z"/>
	</g>
</g>
<path d="M241.9,70.4c-0.9,0-0.9,1.4,0,1.4C242.8,71.8,242.8,70.4,241.9,70.4z"/>
<path d="M180.6,70.5c-0.8,0-0.8,1.4,0,1.4C181.4,71.9,181.4,70.5,180.6,70.5z"/>
<path d="M171.7,70.5c-0.9,0-0.9,1.4,0,1.4C172.6,71.9,172.6,70.5,171.7,70.5z"/>
<path d="M192,64v32h32V64H192z M204.2,71.8c-0.1,0-0.1,0-0.1,0c0,0-0.1,0-0.1,0c-1.3,0-1.3-2,0-2c0.1,0,0.1,0,0.1,0c0,0,0.1,0,0.1,0
	C205.5,69.8,205.5,71.8,204.2,71.8z M213.4,71.8c-1.3,0-1.3-2,0-2S214.7,71.8,213.4,71.8z"/>
<rect x="201.5" y="84.9" class="st3" width="0.8" height="9.9"/>
<rect x="205.8" y="85.6" class="st3" width="0.8" height="9.9"/>
<path class="st9" d="M223.9,88.8c-0.6-5.4-1.6-10.7-3.1-15.9c-0.3-1-0.6-2.1-1.2-3c-0.7-1.1-1.7-1.9-2.8-2.6c-2.8-1.8-6-2.9-9.2-3.3
	c-2.7-0.3-5.7,0-7.4,2.4c-0.7,0.9-1.1,2.1-1.5,3.2c-1.3,3.7-2.6,7.3-3.8,11c-0.7,2.1-1.4,4.2-2.2,6.2c-0.4,1.1-0.7,2.1-0.7,3.2
	c0,1.3,1.1,4.7,1.6,5.9c2.8-0.6,5.2-3.2,5.9-6.3c0.6,1.8,1.4,3.5,2.5,5c0.4,0.6,1,1.2,1.7,1.2c1,0,1.5-1.3,1.8-2.4
	c0.5-1.8,0.9-3.7,1.4-5.5c0.9,2.1,1.6,4.2,2.3,6.3c2.8-0.9,4.9-3.7,5.4-6.9c0.9,2.6,2.6,4.8,4.8,6.1c0.8,0.5,1.8,0.9,2.7,0.6
	C223.9,93.6,224.1,90.8,223.9,88.8z M204.2,71.8c-0.1,0-0.1,0-0.1,0c0,0-0.1,0-0.1,0c-1.3,0-1.3-2,0-2c0.1,0,0.1,0,0.1,0
	c0,0,0.1,0,0.1,0C205.5,69.8,205.5,71.8,204.2,71.8z M213.4,71.8c-1.3,0-1.3-2,0-2S214.6,71.8,213.4,71.8z"/>
<path class="st4" d="M214.4,69.2L214.4,69.2C214.4,69.3,214.5,69.3,214.4,69.2z"/>
<path class="st9" d="M216,71.1c-0.1-0.1-0.2-0.2-0.3-0.4c-0.1-0.3-0.1-0.7-0.3-1c-0.2-0.2-0.5-0.4-0.8-0.4c-0.1,0-0.1,0-0.2-0.1
	c0,0,0,0,0,0h0l0,0h0c0,0,0,0,0,0c-0.2-0.1-0.4-0.2-0.6-0.2s-0.4,0-0.6,0c-0.1,0-0.1,0-0.2,0c-0.2,0-0.4,0-0.6,0.1
	c-0.2,0.1-0.4,0.1-0.5,0.3c-0.6,0.8-0.2,1.9-0.5,2.9c0,0.1,0.1,0.2,0.1,0.2c1.1,0.7,2.4,0.3,3.5-0.1c0.2-0.1,0.5-0.1,0.8-0.2
	c0.2-0.1,0.5-0.3,0.5-0.6C216.3,71.4,216.1,71.2,216,71.1z"/>
<g>
	<g>
		<path class="st5" d="M215.4,74.2c3.2,0,3.2-5,0-5S212.2,74.2,215.4,74.2L215.4,74.2z"/>
	</g>
</g>
<path d="M216.3,71.2c-0.9,0-0.9,1.4,0,1.4C217.2,72.6,217.2,71.2,216.3,71.2z"/>
<g>
	<g>
		<path class="st5" d="M208.9,74.3c3.2,0,3.2-5,0-5C205.7,69.3,205.7,74.3,208.9,74.3L208.9,74.3z"/>
	</g>
</g>
<path d="M209.8,71.2c-0.9,0-0.9,1.4,0,1.4C210.7,72.6,210.7,71.2,209.8,71.2z"/>
<g>
	<path class="st9" d="M203.8,70.8"/>
	<g>
		<path class="st9" d="M203.8,73.3c3.2,0,3.2-5,0-5C200.6,68.3,200.6,73.3,203.8,73.3L203.8,73.3z"/>
	</g>
</g>
<rect y="96" width="32" height="32"/>
<circle class="st10" cx="16" cy="111.9" r="8"/>
<rect x="32" y="96" width="32" height="32"/>
<rect x="32" y="126.7" class="st10" width="32" height="2.4"/>
</svg>
